# xmcd
#
# Track frame offsets:
#	150
#	15605
#	33615
#	56005
#	74582
#	90952
#	109235
#	128110
#	145942
#	164212
#	183645
#	198687
#	215507
#	232967
#	250840
#	268660
#	283727
#	301987
#
# Disc length: 4255 seconds
# Revision: 2
# Processed by: cddbd v1.5.2PL0 Copyright (c) Steve Scherf et al.
# Submitted via: dBpowerAMP V12.0
#
DISCID=17109d12
DTITLE=Carrie Underwood - Blown Away
DYEAR=2012
DGENRE=Country
TTITLE0=Good Girl
TTITLE1=Blown Away
TTITLE2=Two Black Cadillacs
TTITLE3=See You Again
TTITLE4=Do You Think About Me
TTITLE5=Forever Changed
TTITLE6=Nobody Ever Told You
TTITLE7=One Way Ticket
TTITLE8=Thank God For Hometowns
TTITLE9=Good In Goodbye
TTITLE10=Leave Love Alone
TTITLE11=Cupid's Got A Shotgun
TTITLE12=Wine After Whiskey
TTITLE13=Who Are You
TTITLE14=Cowboy Casanova
TTITLE15=Before He Cheats
TTITLE16=Last Name
TTITLE17=Jesus, Take The Wheel
EXTD=
EXTT0=
EXTT1=
EXTT2=
EXTT3=
EXTT4=
EXTT5=
EXTT6=
EXTT7=
EXTT8=
EXTT9=
EXTT10=
EXTT11=
EXTT12=
EXTT13=
EXTT14=
EXTT15=
EXTT16=
EXTT17=
PLAYORDER=
